<svg id="Layer_1" data-name="Layer 1" xmlns="http://www.w3.org/2000/svg" viewBox="0 0 529.04 89.86"><defs><style>.cls-1{fill:#202020;}</style></defs><path class="cls-1" d="M0,72.1v-.2c0-1.85,3.51-2.05,3.51-5.46V10.9C3.51,7.3,0,7.39,0,5.45v-.2c0-.78.78-1.17,2-1.17H14.23c1.17,0,1.95.39,1.95,1.17v.2c0,1.94-3.8,1.85-3.8,5.45V65.47c0,2.24,1.07,3.8,3.11,3.8H37.13c5.65,0,6.82-10.72,10.23-10.72h.78c.87,0,1.36.59,1.07,1.76L46.77,71c-.29,1.47-1,2.25-2.43,2.25H2C.78,73.27,0,72.78,0,72.1Z"/><path class="cls-1" d="M54.38,72v-.39c0-1.85,3.5-1.85,3.5-5.26v-29c0-3.8-3.5-4.58-3.5-6v-.2c0-.68.58-1,1.46-1.46l7.5-3.7c2-1,3,0,3,1.36V66.35c0,3.41,3.9,3.41,3.9,5.26V72c0,.78-.88,1.27-2.05,1.27h-12C55.06,73.27,54.38,72.78,54.38,72Zm1-60.81c0-3.6,2.53-6.13,6.53-6.13,3.8,0,6.33,2.53,6.33,6.13s-2.53,6-6.33,6C57.88,17.24,55.35,14.8,55.35,11.19Z"/><path class="cls-1" d="M76.89,63c0-2.34,1.56-3.6,3.8-3.6,6,0,2.92,11.89,16,11.89,6.23,0,11.11-3,11.11-8.58C107.78,48.42,78,58.06,78,38.87c0-7.51,7.6-13.35,18.32-13.35,12.08,0,19,6.23,19,11.5a3.41,3.41,0,0,1-3.51,3.41c-5.55,0-3.12-11.89-15.1-11.89-5.65,0-10,3.6-10,8.48,0,14,29.72,4.48,29.72,24,0,7.31-7.6,13.15-19.68,13.15C83.71,74.14,76.89,67.61,76.89,63Z"/><path class="cls-1" d="M127.56,59.53V30.39h-6.43a1.38,1.38,0,0,1-1.46-1.46V28a1.34,1.34,0,0,1,1.46-1.46h3.51c4.67,0,6.92-3.7,7.4-9.25.1-1.27.78-1.95,1.66-1.95h1c1.17,0,1.56.68,1.56,1.95l.1,9.25h13.45A1.5,1.5,0,0,1,151.24,28v1a1.43,1.43,0,0,1-1.46,1.46H136.33V59.62c0,5.36,2.53,8.19,6.14,8.19,4.29,0,6.82-2.53,7.21-5.85.59-1.46,2.92-1.36,2.92.39,0,6-4.67,11.89-12.47,11.89C132.63,74.24,127.56,69.46,127.56,59.53Z"/><path class="cls-1" d="M159.45,59.53C161.6,64.2,166.18,68,173.39,68c7.89,0,13.83-5.06,16.07-13.44l-27-8.87c-2.92-1-4.58-2.63-4.58-5.75,0-6.72,6.43-14.42,18.13-14.42,13,0,23,10.23,23,24,0,15.2-10,24.75-22.6,24.75-12.18,0-18.61-8.09-19.78-13.93C156.33,58.45,158.57,58.16,159.45,59.53Zm18-30.89c-6.72,0-11.4,7.11-11.4,11.49a3.34,3.34,0,0,0,2.34,3.42l21.73,7.79a27.22,27.22,0,0,0,.39-5C190.54,36.43,185.37,28.64,177.48,28.64Z"/><path class="cls-1" d="M255.12,71.71v.39c0,.78-.78,1.26-2.05,1.26H241.48c-1.27,0-2-.48-2-1.26v-.39c0-1.86,3.7-1.86,3.51-5.36l-1-19.49c-.48-11.89-5.26-17.54-12-17.54-7.21,0-12.18,5.75-12.18,13.45V66.44c0,3.41,3.89,3.41,3.89,5.27v.39c0,.78-.77,1.26-2,1.26H207.47c-1.17,0-1.95-.48-1.95-1.26v-.39c0-1.86,3.8-1.86,3.8-5.27V36.92c0-4.19-4.09-4-4.09-5.75v-.29c0-.68.58-1.07,1.56-1.46l7.3-3.51c1.86-1,2.73,0,2.73,1.46v7.11a16.8,16.8,0,0,1,15.2-9c9.55,0,17.54,6.43,18.52,21.53l1.07,19.2C251.8,69.85,255.12,69.85,255.12,71.71Z"/><path class="cls-1" d="M341.26,71.9v.2c0,.78-.68,1.17-1.85,1.17H325.67c-1.17,0-1.85-.39-1.85-1.17v-.2c0-1.85,4.58-2.05,3.31-5.46L322.46,55H290.88L286.6,66.44c-1.37,3.41,3.31,3.61,3.31,5.46v.2c0,.78-.78,1.17-2.05,1.17h-9.25c-1.27,0-1.95-.39-1.95-1.17v-.2c0-1.85,3.21-1.75,4.58-5.46l21.63-55.25c1.17-2.92-3-4.19-3-5.74v-.3c0-.58.39-1.07,1.36-1.07h5.65c2.34,0,3.61.88,4.58,3.22l25.14,59.14C338.14,70.05,341.26,70.05,341.26,71.9ZM320.8,50.76,306.18,14.6,292.54,50.76Z"/><path class="cls-1" d="M345,72v-.29c0-1.95,3.41-1.86,3.41-5.27V11.68c0-3.8-3.41-4.38-3.41-5.84v-.2c0-.78.49-1.07,1.36-1.56l7.6-3.7c1.95-1,3,.1,3,1.36v64.7c0,3.41,3.8,3.32,3.8,5.27V72c0,.78-.78,1.27-1.94,1.27h-12C345.65,73.27,345,72.78,345,72Z"/><path class="cls-1" d="M367.48,49.2a23.22,23.22,0,0,1,23.68-23.68c14.61,0,24.75,11.11,24.75,24.75,0,13.45-9.26,24-23,24C377.42,74.24,367.48,62.45,367.48,49.2Zm39.85,4c0-13.64-7.21-24.46-17.15-24.46-8.28,0-14,6.82-14,17.74,0,12.47,7.21,24.55,17.93,24.55C401.68,71,407.33,64.11,407.33,53.19Z"/><path class="cls-1" d="M472.92,71.71v.39c0,.78-.79,1.26-2.05,1.26h-11.6c-1.26,0-2-.48-2-1.26v-.39c0-1.86,3.7-1.86,3.5-5.36l-1-19.49c-.49-11.89-5.26-17.54-12-17.54-7.21,0-12.18,5.75-12.18,13.45V66.44c0,3.41,3.9,3.41,3.9,5.27v.39c0,.78-.78,1.26-2,1.26H425.27c-1.17,0-1.95-.48-1.95-1.26v-.39c0-1.86,3.8-1.86,3.8-5.27V36.92c0-4.19-4.1-4-4.1-5.75v-.29c0-.68.59-1.07,1.56-1.46l7.31-3.51c1.85-1,2.73,0,2.73,1.46v7.11a16.8,16.8,0,0,1,15.2-9c9.55,0,17.54,6.43,18.51,21.53l1.08,19.2C469.6,69.85,472.92,69.85,472.92,71.71Z"/><path class="cls-1" d="M528.49,28.93c-1.76,1.85-5.07,1.46-8,2.24a17.43,17.43,0,0,1,6.82,13.45,18.57,18.57,0,0,1-11.69,17.54c8.47,1.85,12.91,6.53,12.66,12.27-.59,13.85-26.47,15.43-39.63,15.43-15,0-21.85-10.15-21.85-16.39a3.39,3.39,0,0,1,3.6-3.7c6,0,2.92,15.3,19.2,15.39,8,0,29.92-.44,30-10.14.06-6.24-4.19-10.52-10.81-11.11-1.27.1-2.44.2-3.71.2-11.69,0-20.85-8.38-20.85-18.91,0-11.4,8.57-19.68,21.53-19.68,6.63,0,7.7,1,20,1C529.07,26.49,529.66,28,528.49,28.93Zm-9.65,18.71c0-10.14-5.94-19-14.61-19-7,0-11.5,5.65-11.5,13,0,10.43,6,19.2,13.93,19.2C514.17,60.89,518.84,55.14,518.84,47.64Z"/></svg>