<svg id="Layer_1" data-name="Layer 1" xmlns="http://www.w3.org/2000/svg" viewBox="0 0 150 150"><defs><style>.cls-1{fill:#fefbf5;}</style></defs><path class="cls-1" d="M7.39,137.31v-.37c0-3.45,6.54-3.81,6.54-10.18V23.15c0-6.73-6.54-6.54-6.54-10.18v-.36c0-1.46,1.45-2.18,3.63-2.18H33.93c2.18,0,3.63.72,3.63,2.18V13c0,3.64-7.09,3.45-7.09,10.18V125c0,4.18,2,7.09,5.82,7.09H76.64c10.55,0,12.73-20,19.09-20h1.46c1.63,0,2.54,1.09,2,3.27l-4.55,20c-.54,2.72-1.82,4.18-4.54,4.18H11C8.84,139.49,7.39,138.58,7.39,137.31Z"/><path class="cls-1" d="M138.75,137.67v.26c0,1-.91,1.56-2.47,1.56H117.91c-1.56,0-2.47-.52-2.47-1.56v-.26c0-2.48,6.12-2.74,4.43-7.3L98.07,79.16H55.87L50.14,94.53c-1.83,4.56,4.43,4.82,4.43,7.3v.26c0,1-1,1.56-2.74,1.56H39.46c-1.7,0-2.61-.52-2.61-1.56v-.26c0-2.48,4.3-2.35,6.12-7.3L71.89,20.68c1.56-3.91-4-5.6-4-7.68v-.39c0-.78.52-1.44,1.83-1.44h7.55c3.13,0,4.82,1.18,6.12,4.3l49.15,114.9C134.58,135.19,138.75,135.19,138.75,137.67ZM95.86,73.56,76.32,25.24,58.08,73.56Z"/></svg>